<svg width="15" height="16" viewBox="0 0 15 16" fill="none" xmlns="http://www.w3.org/2000/svg">
<g clip-path="url(#clip0_1_7)">
<path d="M12.8906 12.5047C13.9506 11.243 14.5317 9.64788 14.5317 8.00001C14.5317 6.35213 13.9506 4.75704 12.8906 3.49532C12.8437 3.43907 12.7922 3.39219 12.7453 3.34063C12.6422 3.21876 12.5344 3.10157 12.4219 2.98907L12.1875 2.76407C12.0891 2.67501 11.9906 2.58594 11.8828 2.50157L11.6109 2.30001C11.5078 2.22501 11.4047 2.15001 11.2922 2.07969L10.9922 1.90626C10.8797 1.84063 10.7625 1.77969 10.6406 1.71876L10.3547 1.58282C10.2234 1.52188 10.0922 1.47032 9.96093 1.42344C9.82968 1.37657 9.77811 1.34844 9.68436 1.32032C9.59061 1.29219 9.38436 1.23126 9.21561 1.19376L8.96249 1.12813C8.78905 1.09063 8.61561 1.06719 8.44218 1.04376C8.37186 1.04376 8.30155 1.01563 8.23124 1.01094C7.73282 0.954706 7.22966 0.954706 6.73124 1.01094C6.66093 1.01094 6.59061 1.01094 6.5203 1.04376C6.34686 1.06719 6.17343 1.09063 5.99999 1.12813L5.74686 1.19376C5.59686 1.23126 5.44061 1.27344 5.27811 1.32032C5.18436 1.34844 5.0953 1.38594 5.00155 1.42344C4.9078 1.46094 4.73905 1.52188 4.6078 1.58282L4.35936 1.71876C4.23749 1.77969 4.1203 1.84063 4.0078 1.90626L3.72186 2.07969C3.60936 2.15001 3.50624 2.22501 3.40311 2.30001L3.13124 2.50157C3.02343 2.58594 2.92499 2.67501 2.82655 2.76407L2.58749 2.97501C2.47499 3.08751 2.36718 3.20469 2.26405 3.32657C2.21718 3.37813 2.16561 3.42501 2.11874 3.48126C1.05876 4.74298 0.477661 6.33807 0.477661 7.98594C0.477661 9.63382 1.05876 11.2289 2.11874 12.4906C2.16561 12.5469 2.21718 12.5938 2.26405 12.6453C2.36718 12.7672 2.47499 12.8844 2.58749 12.9969L2.82655 13.2078C2.92499 13.2969 3.02343 13.3859 3.13124 13.4703L3.40311 13.6719C3.50624 13.7469 3.60936 13.8219 3.72186 13.8922L4.0078 14.0656C4.1203 14.1313 4.23749 14.1922 4.35936 14.2531L4.6453 14.3938C4.77655 14.45 4.9078 14.5016 5.03905 14.5484C5.1328 14.5859 5.22186 14.6234 5.31561 14.6516C5.40936 14.6797 5.61561 14.7406 5.78436 14.7781L6.03749 14.8438C6.21093 14.8813 6.38436 14.9047 6.5578 14.9281C6.62811 14.9281 6.69843 14.9563 6.76874 14.9609C7.26716 15.0172 7.77032 15.0172 8.26874 14.9609C8.33905 14.9609 8.40936 14.9375 8.47968 14.9281C8.65311 14.9047 8.82655 14.8813 8.99999 14.8438L9.25311 14.7781C9.40311 14.7406 9.55936 14.6984 9.72186 14.6516C9.81561 14.6234 9.90468 14.5859 9.99843 14.5484C10.0922 14.5109 10.2609 14.45 10.3922 14.3938L10.6781 14.2531C10.8 14.1922 10.9172 14.1313 11.0297 14.0656L11.3156 13.8922C11.4281 13.8219 11.5312 13.7469 11.6344 13.6719L11.9062 13.4703C12.0141 13.3859 12.1125 13.2969 12.2109 13.2078L12.45 12.9969C12.5625 12.8844 12.6703 12.7672 12.7734 12.6453C12.8203 12.5938 12.8719 12.5469 12.9187 12.4906L12.8906 12.5047ZM12.4828 11.4922C12.1592 11.1661 11.8043 10.8725 11.4234 10.6156C11.8176 8.89416 11.8176 7.10586 11.4234 5.38438C11.8043 5.12751 12.1592 4.83392 12.4828 4.50782C13.2059 5.52875 13.5942 6.74896 13.5942 8.00001C13.5942 9.25106 13.2059 10.4713 12.4828 11.4922ZM11.8453 12.2609C11.7703 12.3406 11.6953 12.4063 11.6156 12.4813L11.4047 12.6734C11.325 12.7391 11.2453 12.7953 11.1656 12.8563L10.9266 13.0344C10.8375 13.0953 10.7484 13.1469 10.6594 13.1984C10.5703 13.25 10.5 13.3016 10.4156 13.3484C10.3312 13.3953 10.2609 13.4234 10.1859 13.4609C10.5976 12.8872 10.9215 12.2552 11.1469 11.5859C11.4118 11.7766 11.6611 11.9882 11.8922 12.2188L11.8453 12.2609ZM4.3453 13.1984C4.25624 13.1469 4.16718 13.0953 4.07811 13.0344L3.83905 12.8563C3.75936 12.7953 3.67968 12.7391 3.59999 12.6734L3.38905 12.4813C3.30936 12.4063 3.23436 12.3406 3.15936 12.2609L3.11249 12.2141C3.34303 11.9786 3.59228 11.7623 3.8578 11.5672C4.07589 12.2351 4.39183 12.867 4.7953 13.4422C4.7203 13.4047 4.64061 13.3719 4.56561 13.3297C4.49061 13.2875 4.4203 13.25 4.34061 13.1984H4.3453ZM4.21874 8.00001C4.2191 7.28985 4.29134 6.58155 4.43436 5.88594C5.24658 6.28625 6.12823 6.52655 7.03124 6.59376V9.45313C6.1298 9.51299 5.24822 9.74532 4.43436 10.1375C4.28976 9.43423 4.21751 8.718 4.21874 8.00001ZM3.15468 3.73907C3.22968 3.65938 3.30468 3.59376 3.38436 3.51876L3.5953 3.31251C3.67499 3.24688 3.75468 3.19063 3.83436 3.12969L4.07343 2.95157C4.16249 2.89063 4.25155 2.83907 4.34061 2.78751C4.42968 2.73594 4.49999 2.68438 4.58436 2.63751C4.66874 2.59063 4.73905 2.56251 4.81405 2.52501C4.41058 3.10022 4.09464 3.7321 3.87655 4.40001C3.604 4.21488 3.3469 4.00795 3.1078 3.78126L3.15468 3.73907ZM10.6547 2.80157C10.7437 2.85313 10.8328 2.90469 10.9219 2.96563L11.1609 3.14376C11.2406 3.20469 11.3203 3.26094 11.4 3.32657L11.6109 3.51876C11.6906 3.59376 11.7656 3.65938 11.8406 3.73907L11.8875 3.78594C11.6569 4.02137 11.4077 4.2377 11.1422 4.43282C10.9168 3.76354 10.5929 3.1316 10.1812 2.55782C10.2562 2.59532 10.3359 2.62813 10.4109 2.67032C10.4859 2.71251 10.5797 2.75001 10.6594 2.80157H10.6547ZM10.7812 8.00001C10.7809 8.71016 10.7086 9.41846 10.5656 10.1141C9.75175 9.72188 8.87018 9.48955 7.96874 9.42969V6.59376C8.87018 6.5339 9.75175 6.30157 10.5656 5.90938C10.7071 6.59732 10.7793 7.29768 10.7812 8.00001ZM7.96874 14.0188V10.3672C8.78749 10.432 9.58471 10.6615 10.3125 11.0422C9.84374 12.6078 8.96249 13.7422 7.96874 14.0188ZM7.96874 5.65626V1.98126C8.96249 2.25782 9.84374 3.38751 10.3125 4.95782C9.58646 5.34662 8.78916 5.58422 7.96874 5.65626ZM7.03124 1.98126V5.65626C6.21248 5.5915 5.41527 5.3619 4.68749 4.98126C5.15624 3.39219 6.03749 2.25782 7.03124 1.98126ZM7.03124 10.3672V14.0188C6.03749 13.7422 5.15624 12.6125 4.68749 11.0422C5.41527 10.6615 6.21248 10.432 7.03124 10.3672ZM2.51718 4.50782C2.84082 4.83392 3.19564 5.12751 3.57655 5.38438C3.18237 7.10586 3.18237 8.89416 3.57655 10.6156C3.19564 10.8725 2.84082 11.1661 2.51718 11.4922C1.79411 10.4713 1.40578 9.25106 1.40578 8.00001C1.40578 6.74896 1.79411 5.52875 2.51718 4.50782Z" fill="#BFBFBF"/>
</g>
<defs>
<clipPath id="clip0_1_7">
<rect width="15" height="15" fill="white" transform="translate(0 0.5)"/>
</clipPath>
</defs>
</svg>
